<?xml version="1.0" encoding="UTF-8"?>
<svg id="_Слой_1" data-name="Слой 1" xmlns="http://www.w3.org/2000/svg" viewBox="0 0 173.74 262.15">
  <defs>
    <style>
      .cls-1 {
        fill: #93d34e;
      }

      .cls-1, .cls-2, .cls-3, .cls-4, .cls-5, .cls-6, .cls-7, .cls-8, .cls-9, .cls-10, .cls-11, .cls-12, .cls-13 {
        stroke: #2b0000;
        stroke-miterlimit: 10;
      }

      .cls-2 {
        fill: #33701b;
      }

      .cls-14 {
        fill: #ffa532;
      }

      .cls-14, .cls-15, .cls-16, .cls-17, .cls-18 {
        stroke-width: 0px;
      }

      .cls-15 {
        fill: #23acd3;
      }

      .cls-3 {
        fill: #f5b39c;
      }

      .cls-4 {
        fill: #eba38e;
      }

      .cls-5 {
        fill: #9bf259;
      }

      .cls-6 {
        fill: #f7b69f;
      }

      .cls-16 {
        fill: #23acd4;
      }

      .cls-17 {
        fill: #fff;
      }

      .cls-7 {
        fill: #f88b2c;
      }

      .cls-8 {
        fill: #304e28;
      }

      .cls-9 {
        fill: #446124;
      }

      .cls-10 {
        fill: #6fa03b;
      }

      .cls-11 {
        fill: none;
      }

      .cls-18 {
        fill: #2b0000;
      }

      .cls-12 {
        fill: #646470;
      }

      .cls-13 {
        fill: #f28c3e;
      }
    </style>
  </defs>
  <path class="cls-8" d="m115.33,248.86c1.5-1.45,2.92-2.98,4.15-4.68,2.28-3.14,4.07-6.63,5.48-10.24,1.89-4.81,3.19-9.81,4.28-14.85-1.5-.79-3.92-1.91-7.06-2.59-5.26-1.14-7.7-.02-9.5-1.5-2.88-2.37-.94-8.81,0-13,0,0,3.73-16.7-3-38-3.77-11.92-10.83-19.64-13.5-22.5-13.75-14.72-36.91-24.75-57-19-2.6.74-9.69,2.86-16,9-6.27,6.1-8.96,13.43-11,19-.68,1.86-.48,1.56-4,14-3.53,12.47-3.43,11.68-4,14-1.84,7.46-2.23,13.31-3,25-.73,11-1.07,16.62,0,23,1.35,8.08,3.28,12.54,4,14,1.43,2.93,3.9,7.84,9,12,6.55,5.34,13.75,6.42,18,7,7.41,1.02,7.73-.88,20,0,7.53.54,11,1,11,1,5.73.76,7.42,1.37,11,1,2.25-.23,5.64-.62,9-3,1.59-1.13,4.12-2.92,5-6,.67-2.34-.15-3.51,1-5,1.41-1.81,4.1-1.95,5-2,2.48-.13,4.39.73,5,1,4.76,2.06,11.08,2.44,16.15,2.36Z"/>
  <path class="cls-3" d="m48.18,150.5c1.67,1.39,4.01,1.31,6,4,.46.62.97,1.75,2,4,1.15,2.53,1.73,3.79,2,5,.43,1.9.22,2.72,1,4,0,0,.68,1.12,2,2,5.66,3.77,25,0,25,0,6.93-1.35,8.89-2.1,10-4,1.41-2.42.74-5.54,0-9-.38-1.78-1.15-4.56-3-8-2.9-5.4-6.69-9.14-9-11-10.01-8.08-29.64-11.35-36-3-3.47,4.55-3.46,13.14,0,16Z"/>
  <path class="cls-3" d="m125.71,159.1c-.53.57-1.28,1.45-2.03,2.62-1.43,2.23-2.96,4.6-2.16,6.6.56,1.41,2.08,2.17,3.57,2.88.38.18.73.32,1.05.44.85.31,1.35.5,1.71.5,1.2,0,2.56-2.06,2.84-4.14.36-2.69-1.38-3.27-1-5,.68-3.06,6.38-2.34,10-7,.69-.89,2.12-2.73,1.99-4.68-.23-3.45-5.44-5.67-17.6-10.01-12.23-4.37-30.12-10.76-41.57-3.53-.32.2-4.34,2.77-3.88,3.93.5,1.27,5.61-1.49,11.39-.45,9.95,1.79,11.05,12.91,20.67,15.75,1.82.54,3.88,1.69,8,4,1.22.69,2.69,1.55,2.77,2.8.06.95-.68,1.92-.3,3.52.05.22.12.4.16.52"/>
  <path class="cls-12" d="m115.21,199.41l-25.37,2.3c-2.4.22-2.81-2.37-.91-5.77l24.47-43.85c1.9-3.41,5.39-6.34,7.79-6.56l25.37-2.3c2.4-.22,2.81,2.37.91,5.77l-24.47,43.85c-1.9,3.41-5.39,6.34-7.79,6.56Z"/>
  <path class="cls-13" d="m23.18,120.5c-1.21,2.92-.13,7.47,0,8,.82,3.32,2.73,6.65,9,12,3.43,2.93,7.11,5.56,23,14,9.42,5,10.94,5.57,13,5,7.41-2.07,8.8-15.42,12-15,2.88.38,2.27,11.25,6,12,2.46.49,5.65-3.66,7-7,.81-2.01.93-3.65,1-9,.09-6.82.13-10.23,0-11-2.45-14.2-65.27-22.82-71-9Z"/>
  <path class="cls-7" d="m25.68,52c-3.94,4.26-10.95,13.03-14,26-.74,3.17-6.51,29.74,12,50,16.51,18.08,39.62,17.2,45,17,5.87-.22,24.53-.93,39-16,16.73-17.43,14.37-39.99,14-43-.31-2.53-2.81-20.93-18-34,0,0-12.53-9.82-69-5-.66.06-2.21.21-4,1-2.29,1.01-3.9,2.6-5,4Z"/>
  <path class="cls-17" d="m101.18,115.5c1.52-.05,5.23-.18,8-3,2.74-2.78,4.02-7.65,2-11-.27-.45-1.58-2.5-4-3-2.66-.54-4.89,1.15-6,2-4.85,3.69-7.53,11.36-5,14,1.09,1.14,2.89,1.07,5,1Z"/>
  <path class="cls-1" d="m80.68,32.98c.27-2.58-.1-3.41,0-5.03.14-2.41-.04-2.1,1-5.95.74-2.73,1.26-3.25,2.13-5.12.87-1.88,1.11-3.12,2.87-5.88,3.75-5.85,5.95-6.55,8.58-8.2,0,0,2.06-1.29,5.21-2.01,2.31-.53,2.88-.2,3.12,0,.99.82.56,2.85,0,4.02-.68,1.42-1.83,2.17-3.12,3.02-1.79,1.17-3.65,2.61-4.79,3.17-2,1-3.22,2.38-4.59,4.88-3.56,6.51-4.25,15.82-3.12,19.11.06.18.23.65,0,1.01-.85,1.33-6.61.31-7.29-2.01-.09-.31-.05-.51,0-1.01Z"/>
  <path class="cls-9" d="m56.68,28c3.57-1.15,8.36-2.18,14-2,7.12.23,13.28,2.33,17.01,4.45,1.79,1.02,3.45,2.21,4.99,3.55,1.49,1.29,3.18,2.07,3,3-.27,1.36-4.03,1.63-9,2-18.64,1.38-20.17,1.04-22,0-1.79-1.01-5.69-3.75-8-11Z"/>
  <path class="cls-5" d="m104.68,76c3.6,3.27,7.99,7.06,13,11,1.28,1.01,4,3.1,8,4,1.69.38,3.4.74,5,0,1.43-.66,3.14-2.37,4-8,1.75-11.48-2.74-21.43-3-22-.89-1.91-5.08-10.51-15-17-5-3.27-18.24-10.44-23-6-4.65,4.34.97,17.77,4,25,2.3,5.5,4.89,9.86,7,13Z"/>
  <path class="cls-2" d="m49.68,48c-5-.22-6.72-1.3-13-1-3.92.19-7.99.38-13,2-3.92,1.27-8.07,1.76-12,3-.67.21-1.99.64-3,0-2.1-1.33-1.15-6.21-1-7,1.64-8.48,10.66-13.66,13-15,7.5-4.3,14.54-4.76,19-5,2.23-.12,12.4-.51,22,4,3.82,1.8,6.62,3.93,8,5,3.33,2.57,4.99,3.86,5,5,.02,4.05-12.71,9.55-25,9Z"/>
  <path class="cls-10" d="m47.68,55c.94-3.24,2.61-6.18,2.61-6.18.51-.91,2.66-4.6,6.39-7.82,8.34-7.19,18.76-7.04,20-7,8.29.24,14.23,3.93,17,6,2.55,1.91,10.28,7.68,11,17,.4,5.14-1.52,9.06-3,12-4.8,9.51-15.8,19.75-30,20-3.08.05-10.67.19-17-5-8.91-7.3-9.51-20.38-7-29Z"/>
  <path class="cls-14" d="m28.18,82.5c-.6-1.55-.26-2.93,0-4,.31-1.27.87-2.18,2-4,1.21-1.95,1.81-2.93,3-4,1.17-1.05,2.24-1.61,3-2,1.41-.72,2.11-1.08,3-1,1.65.15,2.69,1.57,3,2,.22.3,1.44,2.03,1,4-.36,1.64-1.45,1.57-3,4-1.35,2.11-1.42,2.42-3,4-1,1-.67,1.28-2,3-.32.42-.54.74-1,1-1.19.66-2.63.14-3,0-2.1-.77-2.92-2.78-3-3Z"/>
  <path class="cls-14" d="m28.18,94.5c.19-.71.38-1.38,1-2,.68-.68,1.46-.87,2-1,.65-.16,1.32-.32,2,0,.56.27.84.73,1,1,.73,1.24.56,2.84,0,4-.22.44-.77,1.59-2,2-.79.26-1.49.11-2,0-.72-.16-1.53-.33-2-1-.6-.84-.29-1.96,0-3Z"/>
  <path class="cls-17" d="m63.18,115.5c.45.09,1.17.14,4-1,1.92-.77,2.91-1.18,4-2,1.01-.76,1.57-1.18,2-2,1.03-1.96.27-4.2,0-5-.3-.89-.68-1.49-1-2-.68-1.08-1.55-2.45-3-3-.94-.36-1.84-.26-3,0-4.1.94-6.72,1.54-8,4-1.93,3.71.9,8.31,3,10,.37.3,1.03.81,2,1Z"/>
  <path class="cls-16" d="m65.95,100.91c-.67-.03-1.26-.18-1.77-.41-3.36,1.62-9.76.88-11.16,4.73-1.53,4.22,6.7,10.43,8.5,9.97,3.2-.82,5.73-3.21,6.6-6.23l-8.75-2.03,8.81-2.25c-.39-1.48-1.18-2.76-2.23-3.78,0,0,0,0,0,0Z"/>
  <path class="cls-18" d="m64.18,115.5c-.13.48-3.46.3-5,0-.95-.19,0,0-2-1-1.45-.72-3.15-1.83-4-3-.86-1.19-1.67-2.3-2-4-.02-.09-.3-1.64,0-3,1.08-4.82,9.4-6.65,11-7,4.05-.89,6.79-.32,8,0,2.56.68,3.65,1.66,4,2,1.45,1.43,2,3.27,2,4v1c0,.61.06.77,0,1-.08.29-.31.66-1,1-.12.04-.33.11-.53.28-.31.26-.43.57-.47.72v2c.03.71.13.85,0,1-.2.24-.74.25-1,0,0,0-.02-.02-.03-.03-.12-.14-.13-.3-.13-.5,0-.28-.01-.41,0-.61,0-.08.01-.22.03-.4.03-.3.06-.51.08-.64,0,0,0,0,0,0,.17-.38.08-.72.06-.89-.05-.47.04-.43,0-.92-.06-.8-.33-1.41-.53-1.84-.07-.15-.21-.46-.44-.83-.09-.14-.38-.61-1.03-1.33-.4-.44-.67-.74-1-1-1.23-.98-2.73-1-3-1-.43,0-.75.08-.98.14-1.1.25-1.83.75-2.02.86-1.83,1.16-4.94-.36-7,1-1.73,1.14-2.45,3.78-2,6,.44,2.15,2.58,3.42,5,5,1.82,1.19,4.1,1.63,4,2Z"/>
  <circle class="cls-18" cx="57.18" cy="105.5" r="5"/>
  <path class="cls-18" d="m102.18,114.5c1.42-.76,1.95-2.17,3-5,.99-2.65,1.7-4.66,1-7-.28-.93-.83-2.78-2-3-1.78-.34-3.65,3.35-7,10-1.03,2.04-1.46,3.09-1,4,.8,1.59,3.93,2.11,6,1Z"/>
  <path class="cls-15" d="m103.18,101.5c.63.38.8,1.12,1,2,.68,3.04-.43,5.67-1,7-.55,1.26-.97,2.21-2,3-.4.31-1.55,1.19-3,1-.86-.11-1.59-.57-2-1-2.08-2.17-.7-8.38,3-11,.29-.2,2.61-1.85,4-1Z"/>
  <path class="cls-18" d="m103.18,104.5c-.74-1.52-1.43-1.96-2-2-2.3-.17-5.49,6-4,9,.13.25.43.84,1,1,1.18.32,2.56-1.43,3-2,.66-.84,1.89-2.74,2-6Z"/>
  <path class="cls-18" d="m95.18,114.5c-3.25-3.8,4.56-14.39,7-17,.69-.74,1.64-1.56,3-2,1.84-.59,3.41-.17,4,0,.51.15,1.25.39,2,1,1.69,1.37,1.95,3.42,2,4,.02.19.02.36.02.5,0,.21-.01.38-.02.46,0,0,0,.02,0,.04-.56,6.51-3,10-3,10-.63.9-1.68,2.17-2,2-.31-.17.33-1.6,1-4,.85-3.06,2.11-7.84,0-9.99,0,0,0,0,0,0-.86-.23-2.34-.48-4,0-2.14.62-3.51,2.36-4.25,3.27-.2.24-.33.43-.43.57-1.34,1.84-4.06,5.54-3.32,9.16.15.7.32,1.53,1,2,1.41.96,3.82-.39,4,0,.09.19-.42.67-1,1-1.76,1-4.74.48-6-1Z"/>
  <polygon class="cls-17" points="107.18 101.5 99.8 107.86 102.84 107.9 106.18 106.5 107.18 101.5"/>
  <path class="cls-18" d="m72.18,127.5c1.02.29,1.49.74,2,1,.94.47,1.92.25,3,0,1.48-.34,1.61-.87,4-2,1.41-.67,2.13-1,3-1,.57,0,2.16,0,3,1,.3.36.47.81,1,1,.34.12.63.07,1,0,1.15-.22,1.92-.93,2-1,.61-.58.64-.98,1-1,.43-.02.85.53,1,1,.14.45.05.85,0,1-.35,1.18-1.88,1.82-3,2-.93.15-.92-.12-2,0-1.09.12-1.63.46-3,1-1.57.62-2.36.93-3,1-2.27.24-3.19-1.11-6-1-.25.01-.55.03-1,0-.33-.02-1.64-.15-3-1-.68-.43-.89-.74-1-1-.03-.06-.29-.72,0-1,.13-.13.38-.18,1,0Z"/>
  <path class="cls-18" d="m76.18,133.5c2,.31,2.79.73,4,1,2.06.46,3.59.11,4,0,.88-.23,1.55-.4,2-1,.57-.77.34-1.63,1-2,.31-.17.74-.2,1,0,.58.45.03,1.93,0,2-.76,2-3.21,2.76-4,3-.58.18-2.62.78-5,0-2.33-.76-4.21-2.6-4-3,.06-.11.27-.11,1,0Z"/>
  <path class="cls-17" d="m77.18,129.5c-.05-.35,1.42-.37,4-2,.84-.53,1.22-.86,2-1,1.13-.2,2.63.11,3,1,.2.47.02.95,0,1-.87,2.28-8.89,1.82-9,1Z"/>
  <path class="cls-6" d="m12.32,155.01c-2.48,3.67-2.31,8.06-2.22,10.4.04,1.02.3,5.82,3.97,12.01,2.11,3.55,5.84,8.38,13.77,13.43,3.49,2.22,25.18,16.08,45.58,10.9,5.9-1.5,9.61-4.06,18.26-4.74,2.78-.22,6.61.4,10-2,2.52-1.78,3.52-4.62,4-6,1.09-3.1.02-3.45,1-6,1.63-4.25,5.35-5.25,5-8-.12-.91-.6-1.54-1-2-4.04-4.66-13.44-1.51-14.59-4.41-.52-1.31,1.23-2.33.61-4.2-.58-1.74-2.84-2.78-4.59-2.81-2.21-.04-3.13,2.28-6.61,6.19-2.69,3.02-4.04,4.53-5.01,4.99-3.16,1.51-5.28-.54-13.19-2.63-8.64-2.27-12.39-1.48-14.99-5.03-1-1.37-.84-2.04-1.59-3.8-3.63-8.56-15.27-11.42-16.18-11.63-6.15-1.43-17.47-1.66-22.21,5.35Z"/>
  <path class="cls-6" d="m55.85,168.03c-2.64-1.57-8.5-4.55-16.39-4.5-5.23.03-9.39,1.38-11.96,2.45"/>
  <path class="cls-6" d="m95.99,196.82c-1.57-.39-4.88-1.34-6.74-2.96-.57-.5-.9-.97-1.08-1.36"/>
  <path class="cls-4" d="m139.68,230c.05-.1.95-1.9,1-2,2-4,1.99-3.98,2-4,1.98-3.28,4.55-2.65,7-6,.25-.34.87-1.23,1.87-2.51.69-.88.44-.56,1.63-1.99,1.66-2,2.23-2.52,3-3,.87-.55,3.23-2.03,5-1,.9.52,1.42,1.56,1.5,2.5.12,1.4-.76,2.37-2,4-2.78,3.64-3.92,6.05-4,6-.1-.06,2.03-3.32,4-6,1.69-2.31,2.23-2.79,3-3,2.31-.62,4.78,1.8,5.5,2.5,3.48,3.42,5.38,9.64,3,14-.51.93-.48.48-4,4-3.62,3.62-6.06,5.91-9,8-2.04,1.45-1.76.94-5,3-7.65,4.85-6.98,6.47-10,7-2.17.38-5.95-.58-13.5-2.5-2.9-.74-2.87-.81-4-1-4.59-.77-6.78.16-11.5.5-6.59.48-11.59-.65-13-1-3.43-.85-6.15-2.05-8-3,2.07-1.22,5.2-3.4,8-7,3.3-4.24,4.58-8.42,5-10,1.98-7.35-.42-10.64,2-13,1.44-1.4,4.98-.96,12,0,5.29.72,14.78,4.74,20,7,.37.16,1.3.57,2.5.5.51-.03,2.2-.2,5-2.95.38-.37.72-.75.86-.91.89-.99,1.52-1.89,1.94-2.52"/>
  <path class="cls-4" d="m1.18,224.5c-.77,1.62-1.35,4.36,2,12,3.45,7.87,5.56,12.69,11,17,7.44,5.9,15.79,6.63,20,7,2.86.25,5.9.17,12,0,5.49-.15,8.23-.43,13,0,4.02.37,4.13.74,7,1,6.73.61,18.47-.4,22-7,.51-.95,1.07-2.62,1-6-.22-11.44-.33-17.16,1-20,1.22-2.61,2.53-3.86,3-7,.37-2.49-.41-4.5-1-6-1.3-3.32-4.26-7.51-6-7-2.37.7-1.73,10.01-2,10-.23,0,1.25-6.79-2-10-3.16-3.12-10.59-2.65-14,1-2.2,2.35-2.52,5.79-3,11-.49,5.28.29,7.09-1,8-1.89,1.33-4.83-1.7-12-4-1.08-.35-.82-.22-10-2-8.55-1.66-10.96-2.2-16-3-4.8-.76-6.65-.92-8-1-4.8-.29-7.74-.43-11,1-1.46.64-4.58,2.01-6,5Z"/>
  <path class="cls-11" d="m28.32,220.4c-4.46-1.34-9.6-.16-13.03,3-1.54,1.42-2.72,3.17-4.2,4.64"/>
  <path class="cls-11" d="m65.45,216.57c-.69,8.7-1,17.43-.92,26.16,0,1,.13,2.19,1,2.68"/>
  <path class="cls-11" d="m95.25,2.79c-.13.43-.25.87-.31,1.32-.11.9.08,1.82.45,2.64s.92,1.56,1.56,2.2c.26.26.55.52.92.58"/>
  <path class="cls-11" d="m103.25,170.09c-1.27-.08-2.53-.15-3.8-.23-.96-.06-1.93-.12-2.88.03-1.09.17-2.1.53-4.06,1.29-2.11.83-3.18,1.25-3.84,1.82-1.14.99-1.71,2.19-2,3"/>
  <path class="cls-3" d="m131.01,168.41c1.04,1.6,2.97,2.56,4.75,2.51,2.42-.08,4.01-1.99,6.61-5.13.78-.94,2.14-2.72,3.29-5.27,1.08-2.38,1.64-3.62,1.24-5.09-.5-1.85-2.29-3.58-4.44-3.78-2.73-.25-4.58,2.09-4.79,2.36-1.22,1.59-.6,2.59-2,4-1.06,1.07-1.67.75-3,2-.37.35-1.43,1.37-2,3-.23.67-1.11,3.18.34,5.41Z"/>
  <path class="cls-11" d="m68.19,104.69s-.01-.03-.02-.05c-.27-.85-.74-1.75-1.49-2.64-.32-.33-.52-.44-.74-.68-.06-.07-.15-.17-.26-.32-.2-.29-.32-.56-.4-.75"/>
  <path class="cls-11" d="m67.66,108.83c-.01.35-.16,3.51-2.74,5.21-1.28.84-2.58.95-3.24.96"/>
  <path class="cls-7" d="m119.68,182c.61-.61,1-1,1-1h0s.59.14,1,0c.52-.18.43-.79,1-1,.33-.12.44.05.85-.13.19-.08.15-.16.64-.41.2-.1.39-.24.6-.33.2-.08.43-.14.65-.16.19-.02.41.02.56-.12,0,0,.02-.01.03-.02.1-.58.37-2.62-.78-4.57,0,0-1.08-1.65-7.88-3.33-.08-.02-.27-.06-.51-.04-.31.03-.56.15-.74.27-.63.34-1.8,1.09-2.67,2.49-.21.34-1.94,3.22-.58,6.33,1.24,2.84,4.11,3.64,4.59,3.78.5.14.93.2,1.24.23.09-.03.76-.29,1-1,.15-.46.05-.85,0-1Z"/>
  <path class="cls-1" d="m123.3,171.13c.13-.29.12-.4.2-.59.11-.28.08-.25.35-.66.19-.29.28-.33.45-.51s.25-.32.57-.57c.67-.54.96-.53,1.33-.62,0,0,.29-.07.69-.03.29.03.35.09.37.12.08.14-.05.36-.16.47-.14.14-.3.18-.49.23-.26.07-.53.16-.69.18-.27.04-.47.15-.73.39-.68.62-1.13,1.68-1.13,2.11,0,.02,0,.08-.04.12-.15.12-.79-.23-.77-.53,0-.04.01-.06.04-.12Z"/>
  <path class="cls-9" d="m120.68,169.59c.46,0,1.07.08,1.72.32.83.31,1.46.8,1.81,1.2.17.19.32.4.44.61.12.21.29.37.23.47-.09.15-.54.03-1.13-.12-2.24-.58-2.4-.68-2.58-.87-.17-.19-.52-.67-.5-1.61Z"/>
  <path class="cls-5" d="m124.32,176.02c.21.41.46.89.77,1.4.08.13.25.4.56.6.13.08.27.17.43.15.14-.02.34-.13.59-.62.51-1.01.44-2.06.43-2.12-.02-.2-.11-1.12-.75-2.01-.33-.45-1.24-1.5-1.78-1.23-.54.27-.48,1.67-.44,2.43.02.58.11,1.06.19,1.41Z"/>
  <path class="cls-2" d="m119.07,171.66c-.58-.22-.74-.42-1.48-.63-.47-.13-.95-.27-1.6-.28-.51,0-1.01-.11-1.52-.13-.09,0-.26,0-.35-.12-.19-.24.11-.77.16-.86.53-.93,1.79-1.18,2.12-1.24,1.05-.21,1.89.02,2.42.17.27.07,1.47.43,2.42,1.34.38.36.62.72.74.9.29.43.43.65.39.78-.16.48-1.87.61-3.29.06Z"/>
  <path class="cls-10" d="m118.56,172.4c.24-.34.55-.62.55-.62.1-.09.49-.43,1.06-.66,1.26-.51,2.48-.08,2.62-.02.96.36,1.51,1.03,1.75,1.38.22.32.9,1.31.61,2.43-.16.62-.54,1-.83,1.29-.94.92-2.64,1.68-4.31,1.15-.36-.12-1.26-.4-1.79-1.26-.75-1.21-.3-2.76.33-3.67Z"/>
  <path class="cls-11" d="m126.2,168.18s-.06.09-.09.14c-.05.1-.06.22-.05.33s.05.22.09.32c.02.04.04.08.08.1"/>
</svg>